<svg width="387" height="264" viewBox="0 0 387 264" fill="none" xmlns="http://www.w3.org/2000/svg">
<g filter="url(#filter0_d_2044_4229)">
<path d="M342.783 26H44.2174C36.3653 26 30 32.2557 30 39.9726V216.027C30 223.744 36.3653 230 44.2174 230H342.783C350.635 230 357 223.744 357 216.027V39.9726C357 32.2557 350.635 26 342.783 26Z" fill="#FFC256"/>
<mask id="mask0_2044_4229" style="mask-type:alpha" maskUnits="userSpaceOnUse" x="30" y="26" width="327" height="204">
<path d="M342.783 26H44.2174C36.3653 26 30 32.2557 30 39.9726V216.027C30 223.744 36.3653 230 44.2174 230H342.783C350.635 230 357 223.744 357 216.027V39.9726C357 32.2557 350.635 26 342.783 26Z" fill="#DAEBFF"/>
</mask>
<g mask="url(#mask0_2044_4229)">
<path d="M91.4204 301.254C189.01 301.254 268.122 223.504 268.122 127.594C268.122 31.6849 189.01 -46.0652 91.4204 -46.0652C-6.16928 -46.0652 -85.2814 31.6849 -85.2814 127.594C-85.2814 223.504 -6.16928 301.254 91.4204 301.254Z" fill="#FFAF2A"/>
<path d="M76.6869 120.502C129.408 120.502 172.147 78.499 172.147 26.6858C172.147 -25.1275 129.408 -67.1304 76.6869 -67.1304C23.9659 -67.1304 -18.7728 -25.1275 -18.7728 26.6858C-18.7728 78.499 23.9659 120.502 76.6869 120.502Z" fill="#FFCA73"/>
<path d="M230.634 106.549C236.756 106.549 241.719 101.671 241.719 95.6548C241.719 89.6382 236.756 84.7609 230.634 84.7609C224.512 84.7609 219.549 89.6382 219.549 95.6548C219.549 101.671 224.512 106.549 230.634 106.549Z" fill="#FFCA73"/>
<path d="M189.62 199.1C204.925 199.1 217.332 186.907 217.332 171.865C217.332 156.824 204.925 144.63 189.62 144.63C174.315 144.63 161.908 156.824 161.908 171.865C161.908 186.907 174.315 199.1 189.62 199.1Z" fill="#FFCA73"/>
<path opacity="0.6" d="M315.166 203.254C323.238 203.254 329.782 196.825 329.782 188.894C329.782 180.964 323.238 174.535 315.166 174.535C307.094 174.535 300.551 180.964 300.551 188.894C300.551 196.825 307.094 203.254 315.166 203.254Z" fill="white"/>
<path d="M296.901 203.258C304.973 203.258 311.516 196.828 311.516 188.898C311.516 180.967 304.973 174.538 296.901 174.538C288.829 174.538 282.285 180.967 282.285 188.898C282.285 196.828 288.829 203.258 296.901 203.258Z" fill="white"/>
</g>
</g>
<defs>
<filter id="filter0_d_2044_4229" x="0" y="0" width="387" height="264" filterUnits="userSpaceOnUse" color-interpolation-filters="sRGB">
<feFlood flood-opacity="0" result="BackgroundImageFix"/>
<feColorMatrix in="SourceAlpha" type="matrix" values="0 0 0 0 0 0 0 0 0 0 0 0 0 0 0 0 0 0 127 0" result="hardAlpha"/>
<feOffset dy="4"/>
<feGaussianBlur stdDeviation="15"/>
<feColorMatrix type="matrix" values="0 0 0 0 0.211765 0 0 0 0 0.160784 0 0 0 0 0.717647 0 0 0 0.07 0"/>
<feBlend mode="normal" in2="BackgroundImageFix" result="effect1_dropShadow_2044_4229"/>
<feBlend mode="normal" in="SourceGraphic" in2="effect1_dropShadow_2044_4229" result="shape"/>
</filter>
</defs>
</svg>
