<svg width="387" height="264" viewBox="0 0 387 264" fill="none" xmlns="http://www.w3.org/2000/svg">
<g filter="url(#filter0_d_2044_4206)">
<path d="M342.783 26H44.2174C36.3653 26 30 32.2557 30 39.9726V216.027C30 223.744 36.3653 230 44.2174 230H342.783C350.635 230 357 223.744 357 216.027V39.9726C357 32.2557 350.635 26 342.783 26Z" fill="#1573FF"/>
<mask id="mask0_2044_4206" style="mask-type:alpha" maskUnits="userSpaceOnUse" x="30" y="26" width="327" height="204">
<path d="M342.783 26H44.2174C36.3653 26 30 32.2557 30 39.9726V216.027C30 223.744 36.3653 230 44.2174 230H342.783C350.635 230 357 223.744 357 216.027V39.9726C357 32.2557 350.635 26 342.783 26Z" fill="#DAEBFF"/>
</mask>
<g mask="url(#mask0_2044_4206)">
<path d="M75.8988 348.172C173.489 348.172 252.601 270.422 252.601 174.513C252.601 78.6032 173.489 0.853088 75.8988 0.853088C-21.6909 0.853088 -100.803 78.6032 -100.803 174.513C-100.803 270.422 -21.6909 348.172 75.8988 348.172Z" fill="#384E68"/>
<path d="M348.878 153.749C401.599 153.749 444.338 111.746 444.338 59.9326C444.338 8.11931 401.599 -33.8836 348.878 -33.8836C296.157 -33.8836 253.418 8.11931 253.418 59.9326C253.418 111.746 296.157 153.749 348.878 153.749Z" fill="#52D5BA"/>
<path fill-rule="evenodd" clip-rule="evenodd" d="M293.346 198.394L297.046 187.87V187.871H301.041L295.104 203.345H291.108L287.72 190.029C290.114 191.321 292.259 193.924 292.943 196.318L293.346 198.394ZM302.564 187.87L300.201 203.36H303.978L306.339 187.87H302.564ZM313.955 194.18C312.635 193.493 311.826 193.03 311.826 192.327C311.842 191.689 312.51 191.035 314.002 191.035C315.229 191.002 316.13 191.306 316.814 191.608L317.157 191.769L317.671 188.528C316.925 188.225 315.742 187.89 314.281 187.89C310.552 187.89 307.926 189.933 307.91 192.854C307.879 195.011 309.79 196.207 311.22 196.925C312.681 197.661 313.178 198.138 313.178 198.792C313.162 199.797 311.997 200.26 310.91 200.26C309.403 200.26 308.594 200.022 307.366 199.462L306.869 199.223L306.34 202.591C307.227 203.007 308.859 203.373 310.552 203.391C314.515 203.391 317.094 201.379 317.127 198.265C317.139 196.557 316.132 195.249 313.955 194.18ZM324.43 187.918H327.352L330.397 203.373H326.902L326.335 200.287H321.901L320.81 203.36H316.847L322.456 189.164C322.846 188.19 323.53 187.918 324.43 187.918ZM323.001 197.183C323.081 197.175 324.522 192.167 324.522 192.167L325.672 197.183H323.001Z" fill="white"/>
<path d="M291.697 189.979C291.427 188.73 290.564 187.888 289.393 187.87H283.897L283.841 188.173C288.128 189.428 291.726 193.291 292.893 196.924L291.697 189.979Z" fill="white"/>
</g>
</g>
<defs>
<filter id="filter0_d_2044_4206" x="0" y="0" width="387" height="264" filterUnits="userSpaceOnUse" color-interpolation-filters="sRGB">
<feFlood flood-opacity="0" result="BackgroundImageFix"/>
<feColorMatrix in="SourceAlpha" type="matrix" values="0 0 0 0 0 0 0 0 0 0 0 0 0 0 0 0 0 0 127 0" result="hardAlpha"/>
<feOffset dy="4"/>
<feGaussianBlur stdDeviation="15"/>
<feColorMatrix type="matrix" values="0 0 0 0 0.211765 0 0 0 0 0.160784 0 0 0 0 0.717647 0 0 0 0.07 0"/>
<feBlend mode="normal" in2="BackgroundImageFix" result="effect1_dropShadow_2044_4206"/>
<feBlend mode="normal" in="SourceGraphic" in2="effect1_dropShadow_2044_4206" result="shape"/>
</filter>
</defs>
</svg>
