<svg width="90" height="84" viewBox="0 0 90 84" fill="none" xmlns="http://www.w3.org/2000/svg">
<ellipse cx="45" cy="71.7907" rx="45" ry="12.2093" fill="#F2F1F9"/>
<path d="M76.6535 78.1395L48.9977 78.0177C45.6712 78.0033 42.9876 75.4069 43 72.218L43.2941 5.75189C43.309 2.56068 46.0175 -0.0142723 49.3465 5.95374e-05L77.0023 0.12188C80.3288 0.136211 83.0124 2.73266 83 5.92148L82.7059 72.3876C82.6935 75.5789 79.9825 78.1538 76.6535 78.1395Z" fill="url(#paint0_linear_1_3032)"/>
<path d="M76.962 2.41728L71.5998 2.39339C70.8797 2.391 70.2941 2.97144 70.2916 3.69281L70.2866 4.62438C70.2841 5.34574 69.6986 5.92618 68.9785 5.92379L58.5256 5.87841C57.8055 5.87602 57.2274 5.28842 57.2299 4.56705L57.2349 3.63548C57.2374 2.91411 56.6568 2.3289 55.9392 2.32412L54.0529 2.31457L49.361 2.29307C47.0312 2.28351 45.1325 4.08693 45.1225 6.32031L44.836 71.1956C44.826 73.429 46.7048 75.2468 49.0346 75.2563L76.6356 75.3781C78.9654 75.3877 80.8641 73.5843 80.874 71.3509L81.1606 6.47557C81.173 4.24458 79.2918 2.42683 76.962 2.41728Z" fill="white"/>
<path d="M78.0001 36.2508L74.6938 30.3945H74.6922C74.3752 29.7596 73.4949 29.3023 72.4559 29.3023C71.3035 29.3023 70.3451 29.8645 70.1357 30.6082L69.9102 30.6189V36.6869L70.4336 36.2126L71.0123 36.7367H71.1233L71.702 36.2126L72.2805 36.7367H72.3914L72.9699 36.2126L73.5486 36.7367H73.6595L74.2383 36.2126L74.817 36.7367H74.9277L75.5064 36.2126L76.0851 36.7367H76.196L76.7745 36.2126L77.3532 36.7367H77.4642L78.0001 36.2508Z" fill="#BABCBE"/>
<path d="M70.0419 29.3023H69.0919H58.4551C57.1591 29.3023 56.1081 30.0133 56.0927 30.8939C56.0927 30.9004 56.0913 30.9066 56.0913 30.9131C56.0913 30.9196 56.0927 30.9257 56.0927 30.9322V57.0033H65.2257C65.7421 57.3478 66.4483 57.5609 67.2281 57.5609C68.0078 57.5609 68.7138 57.3478 69.2305 57.0033C69.9894 56.4969 70.0419 55.9307 70.0419 55.2524L70.092 30.9131C70.092 30.0235 71.1502 29.3023 72.4557 29.3023H70.0419Z" fill="#FF4267"/>
<path d="M64.5461 55.6712C64.5461 55.4885 64.5857 55.3123 64.6545 55.1446H64.5461L54 56.2598L54.5461 56.7716C55.1169 57.3063 56.0287 57.6228 56.9991 57.6228H67.4097C65.8282 57.6228 64.5461 56.749 64.5461 55.6712Z" fill="#BABCBE"/>
<path d="M68.7817 35.718H57.3198V35.9993H68.7817V35.718Z" fill="#D2CFCA"/>
<path d="M68.7817 37.3691H57.3198V37.6504H68.7817V37.3691Z" fill="#D2CFCA"/>
<path d="M68.7817 39.0198H57.3198V39.301H68.7817V39.0198Z" fill="#D2CFCA"/>
<path d="M68.7817 40.6709H57.3198V40.9522H68.7817V40.6709Z" fill="#D2CFCA"/>
<path d="M68.7817 42.322H57.3198V42.6032H68.7817V42.322Z" fill="#D2CFCA"/>
<path d="M68.7817 43.9731H57.3198V44.2544H68.7817V43.9731Z" fill="#D2CFCA"/>
<path d="M68.7817 45.8422H57.3198V46.1234H68.7817V45.8422Z" fill="#D2CFCA"/>
<path d="M68.7817 47.7122H57.3198V47.9935H68.7817V47.7122Z" fill="#D2CFCA"/>
<path d="M68.7817 49.5813H57.3198V49.8626H68.7817V49.5813Z" fill="#D2CFCA"/>
<path d="M68.7817 33.9047H57.3198V34.186H68.7817V33.9047Z" fill="#D2CFCA"/>
<rect x="50" y="64.9859" width="27.1632" height="6.83409" rx="3.41704" fill="#FFAF2A"/>
<path d="M61.9507 67.6302C61.9507 67.7795 61.9147 67.9195 61.8427 68.0502C61.7733 68.1808 61.6627 68.2862 61.5107 68.3662C61.3613 68.4462 61.172 68.4862 60.9427 68.4862H60.4747V69.5582H59.9147V66.7662H60.9427C61.1587 66.7662 61.3427 66.8035 61.4947 66.8782C61.6467 66.9528 61.76 67.0555 61.8347 67.1862C61.912 67.3168 61.9507 67.4648 61.9507 67.6302ZM60.9187 68.0342C61.0733 68.0342 61.188 67.9995 61.2627 67.9302C61.3373 67.8582 61.3747 67.7582 61.3747 67.6302C61.3747 67.3582 61.2227 67.2222 60.9187 67.2222H60.4747V68.0342H60.9187ZM62.2043 68.4422C62.2043 68.2182 62.2483 68.0195 62.3363 67.8462C62.4269 67.6728 62.5483 67.5395 62.7003 67.4462C62.8549 67.3528 63.0269 67.3062 63.2163 67.3062C63.3816 67.3062 63.5256 67.3395 63.6483 67.4062C63.7736 67.4728 63.8736 67.5568 63.9483 67.6582V67.3422H64.5123V69.5582H63.9483V69.2342C63.8763 69.3382 63.7763 69.4248 63.6483 69.4942C63.5229 69.5608 63.3776 69.5942 63.2123 69.5942C63.0256 69.5942 62.8549 69.5462 62.7003 69.4502C62.5483 69.3542 62.4269 69.2195 62.3363 69.0462C62.2483 68.8702 62.2043 68.6688 62.2043 68.4422ZM63.9483 68.4502C63.9483 68.3142 63.9216 68.1982 63.8683 68.1022C63.8149 68.0035 63.7429 67.9288 63.6523 67.8782C63.5616 67.8248 63.4643 67.7982 63.3603 67.7982C63.2563 67.7982 63.1603 67.8235 63.0723 67.8742C62.9843 67.9248 62.9123 67.9995 62.8563 68.0982C62.8029 68.1942 62.7763 68.3088 62.7763 68.4422C62.7763 68.5755 62.8029 68.6928 62.8563 68.7942C62.9123 68.8928 62.9843 68.9688 63.0723 69.0222C63.1629 69.0755 63.2589 69.1022 63.3603 69.1022C63.4643 69.1022 63.5616 69.0768 63.6523 69.0262C63.7429 68.9728 63.8149 68.8982 63.8683 68.8022C63.9216 68.7035 63.9483 68.5862 63.9483 68.4502ZM67.1792 67.3422L65.8072 70.6062H65.2112L65.6912 69.5022L64.8032 67.3422H65.4312L66.0032 68.8902L66.5832 67.3422H67.1792Z" fill="white"/>
<g opacity="0.75">
<path opacity="0.75" d="M40.9586 68.8229H5.40381V46.7297C5.40381 45.9314 6.06643 45.2842 6.88373 45.2842H39.4787C40.296 45.2842 40.9586 45.9314 40.9586 46.7297V68.8229Z" fill="#B0BEC5"/>
<path opacity="0.75" d="M41.4068 70.7706H4.95589C4.07572 70.7706 3.3623 70.0738 3.3623 69.2141V68.8228H43.0003V69.2141C43.0003 70.0736 42.2869 70.7706 41.4068 70.7706Z" fill="#B0BEC5"/>
<path opacity="0.75" d="M39.2666 47.1074H6.42725V66.9994H39.2666V47.1074Z" fill="#B0BEC5"/>
<path opacity="0.75" d="M27.202 69.7967H19.1609C18.6719 69.7967 18.2754 69.4095 18.2754 68.9318V68.8228H28.0875V68.9318C28.0875 69.4095 27.691 69.7967 27.202 69.7967Z" fill="#B0BEC5"/>
</g>
<path d="M40.5963 68.469H5.0415V46.3757C5.0415 45.5775 5.70413 44.9302 6.52143 44.9302H39.1164C39.9337 44.9302 40.5963 45.5775 40.5963 46.3757V68.469Z" fill="url(#paint1_linear_1_3032)"/>
<path d="M41.0445 70.4168H4.59358C3.71342 70.4168 3 69.7199 3 68.8602V68.469H42.638V68.8602C42.638 69.7198 41.9246 70.4168 41.0445 70.4168Z" fill="#ECEFF1"/>
<path d="M38.9043 46.7536H6.06494V66.6456H38.9043V46.7536Z" fill="white"/>
<path d="M26.8397 69.4429H18.7986C18.3095 69.4429 17.9131 69.0556 17.9131 68.578V68.469H27.7252V68.578C27.7252 69.0556 27.3287 69.4429 26.8397 69.4429Z" fill="#B0BEC5"/>
<path d="M29.7648 58.5249C28.7054 62.7131 24.3707 65.2702 20.0816 64.2352C19.4957 64.0938 18.9409 63.8928 18.4225 63.6399C17.7705 63.3227 17.1759 62.9234 16.649 62.4596C16.1786 62.0456 15.7623 61.5795 15.4069 61.0738C15.2982 60.9193 15.1952 60.761 15.0986 60.5991C14.6724 59.8887 14.3604 59.113 14.1804 58.2999C14.1451 58.141 14.1147 57.981 14.09 57.8198C13.9368 56.8349 13.9754 55.8045 14.2353 54.7775C14.259 54.6837 14.2848 54.5902 14.3128 54.4974C15.4898 50.4758 19.7268 48.0556 23.9185 49.067C24.95 49.3159 25.8848 49.7501 26.695 50.3237C26.8514 50.4347 27.0033 50.5506 27.1504 50.6718C27.7928 51.2004 28.3422 51.8223 28.7824 52.5104C28.8795 52.6621 28.9711 52.8167 29.0574 52.9745C29.3641 53.5358 29.6014 54.1339 29.7612 54.7562C29.9259 55.3977 30.0082 56.0647 29.9994 56.7431C29.9928 57.2385 29.9377 57.7398 29.8302 58.2417C29.8107 58.3368 29.7885 58.4312 29.7648 58.5249Z" fill="#FDD462"/>
<path d="M28.2064 58.1489C28.1828 58.2419 28.1568 58.3343 28.13 58.4256C27.1673 61.6034 23.7939 63.5156 20.467 62.7129C17.14 61.9101 15.0666 58.6835 15.7298 55.4333C15.7496 55.3403 15.7706 55.2466 15.7941 55.1536C16.6396 51.8111 20.1114 49.7638 23.5336 50.5896C26.9557 51.4153 29.0519 54.8062 28.2064 58.1489Z" fill="#F37E00"/>
<path d="M28.1303 58.425C27.1676 61.6028 23.7942 63.515 20.4673 62.7123C20.3927 62.6943 20.3197 62.6748 20.2466 62.6545C19.5109 62.45 18.8404 62.1258 18.2515 61.7083C17.6625 61.2906 17.1556 60.7807 16.7482 60.2049C16.6446 60.0588 16.5475 59.9088 16.4562 59.7539C16.0442 59.0505 15.7694 58.27 15.661 57.4524C15.6343 57.2566 15.6175 57.0578 15.6108 56.8588C15.5937 56.3888 15.6328 55.911 15.7299 55.4329C16.6927 52.255 20.0661 50.342 23.3931 51.1447C23.8139 51.2464 24.2147 51.387 24.5932 51.5618C24.7858 51.6504 24.9732 51.7487 25.154 51.8551C25.8922 52.289 26.5231 52.8604 27.0193 53.5248C27.1264 53.6682 27.2276 53.8165 27.3221 53.9694C27.6898 54.5607 27.958 55.2114 28.1095 55.8949C28.2569 56.5613 28.2939 57.2576 28.2061 57.9607C28.1876 58.1149 28.162 58.2702 28.1303 58.425Z" fill="#F7A219"/>
<path d="M21.9932 60.2978L21.7385 61.3049L20.4287 60.9889L20.672 60.0272C19.7567 59.7486 18.9178 59.2862 18.4453 58.8159L19.546 57.4257C20.0696 57.9274 20.8297 58.3515 21.5449 58.5241C22.1673 58.6743 22.4224 58.6011 22.4775 58.3833C22.6795 57.5849 18.9217 57.3616 19.5206 54.9935C19.7799 53.9683 20.7596 53.2902 22.3359 53.449L22.586 52.4601L23.8959 52.7762L23.6503 53.747C24.3217 53.9763 24.9468 54.3102 25.4029 54.7282L24.351 56.1205C23.7902 55.6483 23.2255 55.3484 22.6588 55.2116C22.0178 55.057 21.7676 55.1891 21.7125 55.4068C21.5198 56.169 25.2753 56.4013 24.6832 58.742C24.4353 59.7223 23.4951 60.4003 21.9932 60.2978Z" fill="#F37E00"/>
<path d="M22.0396 59.954L21.7849 60.9611L20.4751 60.6451L20.7183 59.6833C19.8031 59.4048 18.9641 58.9423 18.4917 58.4721L19.5924 57.0818C20.116 57.5837 20.8761 58.0077 21.5913 58.1803C22.2137 58.3305 22.4688 58.2572 22.5239 58.0395C22.7259 57.2411 18.9681 57.0178 19.567 54.6498C19.8263 53.6246 20.806 52.9465 22.3822 53.1053L22.6324 52.1165L23.9423 52.4325L23.6967 53.4033C24.3681 53.6327 24.9932 53.9665 25.4493 54.3845L24.3973 55.7769C23.8368 55.3047 23.2719 55.0048 22.7052 54.868C22.0642 54.7134 21.814 54.8456 21.7589 55.0632C21.5661 55.8254 25.3217 56.0578 24.7296 58.3986C24.4817 59.3785 23.5414 60.0564 22.0396 59.954Z" fill="#FDD462"/>
<defs>
<linearGradient id="paint0_linear_1_3032" x1="63" y1="0" x2="63" y2="78.1395" gradientUnits="userSpaceOnUse">
<stop stop-color="#469FEF"/>
<stop offset="0.258455" stop-color="#5C75F0"/>
<stop offset="0.652018" stop-color="#6C56F0"/>
</linearGradient>
<linearGradient id="paint1_linear_1_3032" x1="22.8189" y1="44.9302" x2="22.8189" y2="68.469" gradientUnits="userSpaceOnUse">
<stop stop-color="#469FEF"/>
<stop offset="0.258455" stop-color="#5C75F0"/>
<stop offset="0.652018" stop-color="#6C56F0"/>
</linearGradient>
</defs>
</svg>
