<svg width="90" height="84" viewBox="0 0 90 84" fill="none" xmlns="http://www.w3.org/2000/svg">
<ellipse cx="45" cy="72.587" rx="45" ry="11.413" fill="#F2F1F9"/>
<path d="M57.1194 73.0434L32.5921 72.9295C29.642 72.9161 27.2619 70.489 27.273 67.5081L27.5338 5.37676C27.547 2.39367 29.9491 -0.0133415 32.9015 5.56545e-05L57.4288 0.113931C60.379 0.127328 62.759 2.55444 62.7479 5.5353L62.4872 67.6666C62.4761 70.6497 60.0718 73.0567 57.1194 73.0434Z" fill="url(#paint0_linear_1_2999)"/>
<path d="M57.3927 2.2597L52.6371 2.23737C51.9984 2.23514 51.4791 2.77772 51.4769 3.45204L51.4725 4.32285C51.4702 4.99718 50.9509 5.53976 50.3123 5.53753L41.0419 5.4951C40.4033 5.49287 39.8906 4.94359 39.8928 4.26927L39.8972 3.39845C39.8994 2.72413 39.3845 2.17708 38.7481 2.17262L37.0752 2.16369L32.914 2.14359C30.8478 2.13466 29.1639 3.82046 29.155 5.90818L28.9009 66.5524C28.8921 68.6402 30.5583 70.3394 32.6245 70.3483L57.1032 70.4622C59.1694 70.4711 60.8533 68.7853 60.8622 66.6976L61.1163 6.05331C61.1274 3.96783 59.4589 2.26863 57.3927 2.2597Z" fill="white"/>
<rect x="31.2314" y="60.6095" width="27.1632" height="7.02722" rx="3.51361" fill="#FFAF2A"/>
<path d="M43.1821 63.1286C43.1821 63.2779 43.1461 63.4179 43.0741 63.5486C43.0048 63.6792 42.8941 63.7846 42.7421 63.8646C42.5928 63.9446 42.4035 63.9846 42.1741 63.9846H41.7061V65.0566H41.1461V62.2646H42.1741C42.3901 62.2646 42.5741 62.3019 42.7261 62.3766C42.8781 62.4512 42.9915 62.5539 43.0661 62.6846C43.1435 62.8152 43.1821 62.9632 43.1821 63.1286ZM42.1501 63.5326C42.3048 63.5326 42.4195 63.4979 42.4941 63.4286C42.5688 63.3566 42.6061 63.2566 42.6061 63.1286C42.6061 62.8566 42.4541 62.7206 42.1501 62.7206H41.7061V63.5326H42.1501ZM43.4357 63.9406C43.4357 63.7166 43.4797 63.5179 43.5677 63.3446C43.6584 63.1712 43.7797 63.0379 43.9317 62.9446C44.0864 62.8512 44.2584 62.8046 44.4477 62.8046C44.613 62.8046 44.757 62.8379 44.8797 62.9046C45.005 62.9712 45.105 63.0552 45.1797 63.1566V62.8406H45.7437V65.0566H45.1797V64.7326C45.1077 64.8366 45.0077 64.9232 44.8797 64.9926C44.7544 65.0592 44.609 65.0926 44.4437 65.0926C44.257 65.0926 44.0864 65.0446 43.9317 64.9486C43.7797 64.8526 43.6584 64.7179 43.5677 64.5446C43.4797 64.3686 43.4357 64.1672 43.4357 63.9406ZM45.1797 63.9486C45.1797 63.8126 45.153 63.6966 45.0997 63.6006C45.0464 63.5019 44.9744 63.4272 44.8837 63.3766C44.793 63.3232 44.6957 63.2966 44.5917 63.2966C44.4877 63.2966 44.3917 63.3219 44.3037 63.3726C44.2157 63.4232 44.1437 63.4979 44.0877 63.5966C44.0344 63.6926 44.0077 63.8072 44.0077 63.9406C44.0077 64.0739 44.0344 64.1912 44.0877 64.2926C44.1437 64.3912 44.2157 64.4672 44.3037 64.5206C44.3944 64.5739 44.4904 64.6006 44.5917 64.6006C44.6957 64.6006 44.793 64.5752 44.8837 64.5246C44.9744 64.4712 45.0464 64.3966 45.0997 64.3006C45.153 64.2019 45.1797 64.0846 45.1797 63.9486ZM48.4106 62.8406L47.0386 66.1046H46.4426L46.9226 65.0006L46.0346 62.8406H46.6626L47.2346 64.3886L47.8146 62.8406H48.4106Z" fill="white"/>
<g clip-path="url(#clip0_1_2999)">
<path d="M46.7956 28.3042V25.565H49.5229C50.025 25.565 50.432 25.1562 50.432 24.652C50.432 24.1478 50.025 23.739 49.5229 23.739H42.2502C41.7481 23.739 41.3411 24.1478 41.3411 24.652C41.3411 25.1562 41.7481 25.565 42.2502 25.565H44.9775V28.3042H40.432C36.923 28.3042 34.0684 31.1712 34.0684 34.6955V36.5215H37.7047V34.6955C37.7047 33.185 38.9281 31.9563 40.432 31.9563H53.1593V28.3042H46.7956Z" fill="url(#paint1_linear_1_2999)"/>
<path d="M33.1592 42.9129C33.1592 44.6476 34.5228 45.652 35.8865 45.652C37.2501 45.652 38.6137 44.6476 38.6137 42.9129C38.6137 41.1781 35.8865 38.3477 35.8865 38.3477C35.8865 38.3477 33.1592 41.1781 33.1592 42.9129Z" fill="url(#paint2_linear_1_2999)"/>
</g>
<line x1="52.75" y1="26.4784" x2="52.75" y2="33.7827" stroke="#5655B9"/>
<g clip-path="url(#clip1_1_2999)">
<path d="M17.9185 56.8827C17.7443 56.7165 17.5132 56.6239 17.273 56.6239C17.0328 56.6239 16.8018 56.7165 16.6276 56.8827C16.3203 57.1904 9.09121 64.5623 9.09121 69.3914C9.08064 70.4734 9.28505 71.5468 9.69249 72.5485C10.0999 73.5503 10.7022 74.4604 11.4641 75.2256C12.2259 75.9908 13.1321 76.5957 14.1295 77.0049C15.127 77.4141 16.1956 77.6194 17.273 77.6087C18.3504 77.6194 19.4191 77.4141 20.4165 77.0049C21.414 76.5957 22.3201 75.9908 23.082 75.2256C23.8439 74.4604 24.4461 73.5503 24.8536 72.5485C25.261 71.5468 25.4654 70.4734 25.4548 69.3914C25.4548 64.5623 18.2258 57.1904 17.9185 56.8827ZM18.1821 73.0435H17.273C16.7933 73.0516 16.3168 72.9626 15.8721 72.7819C15.4273 72.6012 15.0232 72.3325 14.6839 71.9917C14.3447 71.651 14.0771 71.2452 13.8972 70.7984C13.7173 70.3517 13.6287 69.8732 13.6367 69.3914V68.4783H15.4548V69.3914C15.4548 69.8757 15.6464 70.3401 15.9874 70.6826C16.3284 71.0251 16.7908 71.2175 17.273 71.2175H18.1821V73.0435Z" fill="url(#paint3_linear_1_2999)"/>
</g>
<path d="M80.5376 70.1926C79.0965 76.0651 73.1993 79.6506 67.3644 78.1994C66.5673 78.0011 65.8126 77.7193 65.1073 77.3647C64.2202 76.9199 63.4114 76.36 62.6946 75.7096C62.0546 75.1292 61.4883 74.4756 61.0048 73.7666C60.857 73.55 60.7168 73.328 60.5853 73.1009C60.0056 72.1049 59.5812 71.0171 59.3363 69.8771C59.2883 69.6543 59.2469 69.43 59.2133 69.2039C59.0048 67.8228 59.0573 66.3782 59.4109 64.9381C59.4432 64.8065 59.4782 64.6755 59.5164 64.5453C61.1176 58.9063 66.8817 55.5129 72.5842 56.931C73.9875 57.2799 75.2592 57.8887 76.3614 58.6931C76.5742 58.8487 76.7809 59.0112 76.9809 59.1812C77.8549 59.9224 78.6024 60.7943 79.2012 61.7592C79.3333 61.9718 79.4579 62.1886 79.5752 62.41C79.9925 63.1969 80.3154 64.0356 80.5327 64.9081C80.7567 65.8076 80.8687 66.743 80.8567 67.6942C80.8479 68.3888 80.7729 69.0917 80.6266 69.7954C80.6 69.9288 80.5699 70.0612 80.5376 70.1926Z" fill="#FDD462"/>
<path d="M78.4176 69.6655C78.3855 69.7959 78.3501 69.9255 78.3137 70.0535C77.004 74.5094 72.4148 77.1907 67.8887 76.0651C63.3627 74.9394 60.5419 70.4152 61.4441 65.8579C61.4711 65.7275 61.4996 65.5961 61.5317 65.4657C62.6819 60.779 67.405 57.9083 72.0606 59.0662C76.7162 60.2239 79.5678 64.9786 78.4176 69.6655Z" fill="#F37E00"/>
<path d="M78.3139 70.0531C77.0043 74.509 72.415 77.1903 67.889 76.0646C67.7876 76.0395 67.6882 76.0121 67.5888 75.9836C66.5879 75.6968 65.6757 75.2422 64.8745 74.6568C64.0733 74.0712 63.3838 73.3562 62.8294 72.5489C62.6885 72.344 62.5564 72.1337 62.4322 71.9165C61.8717 70.9302 61.4979 69.8357 61.3505 68.6893C61.314 68.4149 61.2912 68.136 61.2821 67.857C61.2589 67.1981 61.3121 66.5281 61.4442 65.8577C62.754 61.4018 67.3433 58.7194 71.8693 59.845C72.4418 59.9875 72.9871 60.1846 73.502 60.4298C73.7641 60.554 74.019 60.6918 74.2648 60.841C75.2692 61.4494 76.1275 62.2506 76.8025 63.1822C76.9482 63.3833 77.086 63.5912 77.2145 63.8056C77.7147 64.6348 78.0795 65.5471 78.2856 66.5055C78.4862 67.4399 78.5366 68.4162 78.4171 69.4021C78.3919 69.6183 78.357 69.8361 78.3139 70.0531Z" fill="#F7A219"/>
<path d="M69.9653 72.6793L69.6189 74.0915L67.8369 73.6484L68.1679 72.2998C66.9228 71.9092 65.7814 71.2608 65.1387 70.6015L66.6361 68.6521C67.3484 69.3556 68.3824 69.9503 69.3555 70.1923C70.2021 70.4029 70.5492 70.3003 70.6242 69.9949C70.899 68.8754 65.7867 68.5623 66.6015 65.2418C66.9543 63.8043 68.2871 62.8534 70.4315 63.0762L70.7718 61.6896L72.5537 62.1327L72.2197 63.4939C73.1331 63.8155 73.9835 64.2836 74.604 64.8698L73.1729 66.822C72.41 66.1599 71.6417 65.7394 70.8708 65.5476C69.9988 65.3308 69.6584 65.516 69.5834 65.8212C69.3212 66.89 74.4304 67.2158 73.6248 70.4979C73.2876 71.8724 72.0085 72.823 69.9653 72.6793Z" fill="#F37E00"/>
<path d="M70.0283 72.1968L69.6818 73.609L67.8999 73.1659L68.2308 71.8173C66.9857 71.4267 65.8444 70.7783 65.2017 70.119L66.6991 68.1696C67.4113 68.8733 68.4454 69.4678 69.4185 69.7098C70.2651 69.9204 70.6122 69.8176 70.6872 69.5124C70.962 68.3929 65.8497 68.0798 66.6645 64.7595C67.0172 63.322 68.3501 62.3711 70.4945 62.5939L70.8348 61.2073L72.6167 61.6504L72.2827 63.0116C73.1961 63.3333 74.0465 63.8013 74.667 64.3875L73.2358 66.3399C72.4732 65.6778 71.7047 65.2573 70.9338 65.0655C70.0618 64.8487 69.7214 65.034 69.6464 65.3391C69.3842 66.4079 74.4933 66.7337 73.6878 70.016C73.3506 71.3899 72.0715 72.3405 70.0283 72.1968Z" fill="#FDD462"/>
<defs>
<linearGradient id="paint0_linear_1_2999" x1="45.0105" y1="0" x2="45.0105" y2="73.0434" gradientUnits="userSpaceOnUse">
<stop stop-color="#469FEF"/>
<stop offset="0.258455" stop-color="#5C75F0"/>
<stop offset="0.652018" stop-color="#6C56F0"/>
</linearGradient>
<linearGradient id="paint1_linear_1_2999" x1="43.6138" y1="23.739" x2="43.6138" y2="36.5215" gradientUnits="userSpaceOnUse">
<stop stop-color="#469FEF"/>
<stop offset="0.258455" stop-color="#5C75F0"/>
<stop offset="0.652018" stop-color="#6C56F0"/>
</linearGradient>
<linearGradient id="paint2_linear_1_2999" x1="35.8865" y1="38.3477" x2="35.8865" y2="45.652" gradientUnits="userSpaceOnUse">
<stop stop-color="#469FEF"/>
<stop offset="0.258455" stop-color="#5C75F0"/>
<stop offset="0.652018" stop-color="#6C56F0"/>
</linearGradient>
<linearGradient id="paint3_linear_1_2999" x1="17.273" y1="56.6239" x2="17.273" y2="77.6091" gradientUnits="userSpaceOnUse">
<stop stop-color="#469FEF"/>
<stop offset="0.258455" stop-color="#5C75F0"/>
<stop offset="0.652018" stop-color="#6C56F0"/>
</linearGradient>
<clipPath id="clip0_1_2999">
<rect width="21.8182" height="21.913" fill="white" transform="translate(31.3408 23.739)"/>
</clipPath>
<clipPath id="clip1_1_2999">
<rect width="21.8182" height="21.913" fill="white" transform="translate(6.36377 56.6088)"/>
</clipPath>
</defs>
</svg>
