<svg width="90" height="90" viewBox="0 0 90 90" fill="none" xmlns="http://www.w3.org/2000/svg">
<ellipse cx="45" cy="68.6365" rx="45" ry="11.3636" fill="#F2F1F9"/>
<path d="M23.3601 9.42478L22.4251 8.89041C22.4254 8.89097 22.4256 8.89152 22.4262 8.89208C22.1524 8.6934 21.7796 8.68922 21.3678 8.92975L7.8841 16.8008C7.04483 17.2908 6.36426 18.6053 6.36426 19.7369V34.8097C6.36426 35.447 6.58035 35.8904 6.91898 36.0685H6.91871L8.02457 36.6907C8.02457 36.6907 7.79275 36.3006 7.61584 36.0942C7.70305 36.0643 7.79247 36.0249 7.8841 35.9714L21.3678 28.1004C22.2073 27.6104 22.8876 26.2958 22.8876 25.1643V10.0914C22.8876 9.78865 22.8377 9.53137 22.7502 9.32348C23.0662 9.57825 23.3601 9.42478 23.3601 9.42478Z" fill="#E0CBB0"/>
<path d="M6.36328 19.7367V34.8095C6.36328 35.4469 6.57938 35.8903 6.91801 36.0683H6.91773L8.02359 36.6906C8.02359 36.6906 7.79177 36.3005 7.61486 36.094C7.70208 36.0641 7.79149 36.0248 7.88312 35.9712L15.7707 31.3667V24.9626L6.3757 19.4783C6.36825 19.5653 6.36328 19.6516 6.36328 19.7367Z" fill="#C6AE95"/>
<path d="M22.887 10.0912C22.887 9.78841 22.837 9.53113 22.7495 9.32324C23.0658 9.57773 23.3597 9.42453 23.3597 9.42453L22.4247 8.89016C22.425 8.89072 22.4252 8.89128 22.4258 8.89184C22.152 8.69316 21.7792 8.68897 21.3674 8.92951L7.8837 16.8005C7.82519 16.8346 7.76779 16.8736 7.71094 16.9155L18.3026 23.0983L22.8872 19.2974V10.0912H22.887Z" fill="#F2DCC4"/>
<path d="M22.3678 28.6778L8.88409 36.5488C8.04483 37.0388 7.36426 36.5187 7.36426 35.3872V20.3143C7.36426 19.1828 8.04455 17.8682 8.88409 17.3782L22.3678 9.50692C23.2071 9.01692 23.8876 9.53706 23.8876 10.6686V25.7414C23.8876 26.8732 23.2071 28.1878 22.3678 28.6778Z" fill="#F7EED7"/>
<path d="M21.9784 28.5181L9.40879 35.8556C8.53199 36.3673 7.81885 35.9563 7.81885 34.9389V20.3555C7.81885 19.3384 8.53199 18.0944 9.40879 17.5826L21.9784 10.2452C22.8552 9.73341 23.5684 10.1447 23.5684 11.1618V25.7452C23.5684 26.7626 22.8552 28.0063 21.9784 28.5181ZM9.40879 17.7456C8.60954 18.2122 7.95905 19.3465 7.95905 20.2737V34.8572C7.95905 35.7844 8.60954 36.1595 9.40879 35.6929L21.9784 28.3554C22.7777 27.8889 23.4282 26.7545 23.4282 25.827V11.2439C23.4282 10.3163 22.7777 9.94158 21.9784 10.4081L9.40879 17.7456Z" fill="#C6AD89"/>
<g opacity="0.6">
<path opacity="0.6" d="M8.41877 35.8144L23.0346 10.3251C22.7699 10.1521 22.3948 10.1652 21.9784 10.4083L9.40872 17.7457C8.60948 18.2123 7.95898 19.3466 7.95898 20.2739V34.8573C7.95898 35.3409 8.13672 35.6721 8.41877 35.8144Z" fill="#F9ECC7"/>
</g>
<path d="M18.906 24.9496C20.7024 21.8427 20.7205 18.474 18.9465 17.4254C17.1725 16.3767 14.2781 18.0453 12.4817 21.1521C10.6853 24.259 10.6671 27.6277 12.4412 28.6763C14.2152 29.7249 17.1096 28.0564 18.906 24.9496Z" fill="#CEBBA1"/>
<path d="M15.5666 24.2029L13.0596 27.3427L15.2183 28.6029C15.3745 28.5304 15.5332 28.4478 15.6936 28.354C16.6816 27.7772 17.5956 26.8787 18.3433 25.8239L15.5666 24.2029Z" fill="#E0CBB0"/>
<path opacity="0.4" d="M15.6939 17.7467C15.4482 17.8901 15.2073 18.0539 14.9722 18.2344V20.5979L19.6716 23.3412C20.0489 22.3498 20.2652 21.3324 20.2652 20.382C20.2652 17.4526 18.2186 16.2728 15.6939 17.7467Z" fill="#C6AD89"/>
<path opacity="0.4" d="M20.2459 19.9177C20.0513 17.4928 18.316 16.4818 16.1318 17.516L20.2459 19.9177Z" fill="#C6AD89"/>
<path d="M14.4355 27.5496C16.7245 26.2133 18.5802 22.9772 18.5802 20.3212C18.5802 18.5306 17.736 17.4624 16.4847 17.3651C16.2275 17.463 15.9634 17.5886 15.6935 17.7462C13.1688 19.2199 11.1221 22.7894 11.1221 25.7185C11.1221 26.6447 11.3271 27.3956 11.687 27.9433C12.4186 28.2693 13.381 28.1655 14.4355 27.5496Z" fill="#F2DDC2"/>
<path d="M20.1196 26.9009L11.2671 32.0688C10.6497 32.4294 10.1475 32.1397 10.1475 31.4234V21.1523C10.1475 20.436 10.6497 19.5598 11.2671 19.1996L20.1196 14.032C20.7369 13.6714 21.2392 13.9611 21.2392 14.6774V24.9482C21.2392 25.6645 20.7369 26.5404 20.1196 26.9009ZM11.2671 19.314C10.7041 19.6427 10.246 20.4413 10.246 21.0946V31.3654C10.246 32.0186 10.7041 32.2826 11.2671 31.9539L20.1196 26.7862C20.6826 26.4575 21.1407 25.6586 21.1407 25.0057V14.7349C21.1407 14.0816 20.6826 13.8177 20.1196 14.1464L11.2671 19.314Z" fill="#C6AD89"/>
<path d="M15.0293 22.7691C15.0293 23.1218 14.7829 23.5515 14.479 23.729C14.1749 23.9065 13.9287 23.7644 13.9287 23.4117C13.9287 23.059 14.1752 22.6293 14.479 22.4518C14.7829 22.2743 15.0293 22.4164 15.0293 22.7691Z" fill="#5D6D89"/>
<path opacity="0.5" d="M14.8829 22.4233L14.1079 23.775C14.2059 23.8216 14.3348 23.8113 14.478 23.7276C14.7821 23.5501 15.0283 23.1204 15.0283 22.7677C15.0283 22.6019 14.9723 22.4847 14.8829 22.4233Z" fill="#5D6D89"/>
<path d="M14.9635 22.8065C14.9635 23.1174 14.7463 23.496 14.4783 23.6526C14.2104 23.8088 13.9932 23.6838 13.9932 23.373C13.9932 23.0621 14.2104 22.6835 14.4783 22.5269C14.7463 22.3706 14.9635 22.4957 14.9635 22.8065Z" fill="#A6B4C9"/>
<path d="M14.1021 23.6606C14.1239 23.6793 14.1484 23.6935 14.1757 23.703L14.8552 22.519C14.8334 22.5003 14.8088 22.4861 14.7815 22.4766L14.1021 23.6606Z" fill="#5D6D89"/>
<path d="M13.0795 23.9069C13.0795 24.3134 12.7955 24.8087 12.445 25.0133C12.0945 25.2178 11.8105 25.054 11.8105 24.6474C11.8105 24.2409 12.0945 23.7456 12.445 23.541C12.7955 23.3365 13.0795 23.5003 13.0795 23.9069Z" fill="#494238"/>
<path d="M17.1469 21.5326C17.1469 21.9392 16.8629 22.4345 16.5124 22.639C16.1619 22.8435 15.8779 22.6797 15.8779 22.2732C15.8779 21.8666 16.1619 21.3713 16.5124 21.1668C16.8629 20.9625 17.1469 21.126 17.1469 21.5326Z" fill="#494238"/>
<path d="M15.694 28.1481C13.9857 29.1454 12.4888 28.9716 11.6528 27.8886C12.4201 29.1208 13.9416 29.3776 15.694 28.3543C17.4468 27.3311 18.9683 25.2979 19.7355 23.1702C18.8993 25.2296 17.4024 27.1511 15.694 28.1481Z" fill="white"/>
<path opacity="0.4" d="M11.2601 26.79C11.2601 23.545 13.5275 19.5907 16.3243 17.958C16.6183 17.7864 16.9058 17.6497 17.1862 17.5417C16.971 17.4454 16.7367 17.3849 16.4847 17.3651C16.2275 17.463 15.9634 17.5886 15.6935 17.7462C13.1688 19.2199 11.1221 22.7894 11.1221 25.7185C11.1221 26.1722 11.172 26.5833 11.2645 26.9494C11.2631 26.8961 11.2601 26.8445 11.2601 26.79Z" fill="#C6AD89"/>
<path d="M14.2668 27.4637C13.4902 27.9171 12.7602 28.1133 12.1235 28.0815C12.784 28.2124 13.5793 28.05 14.4357 27.5502C16.2638 26.4831 17.8143 24.2042 18.3652 21.9766C17.6686 24.2058 16.0963 26.3958 14.2668 27.4637Z" fill="#FFFAEE"/>
<path d="M12.6226 23.4673C12.7766 23.5116 12.8765 23.6665 12.8765 23.907C12.8765 24.3136 12.5925 24.8089 12.242 25.0135C12.1802 25.0495 12.1205 25.0737 12.064 25.0874C12.1699 25.1181 12.3016 25.0969 12.4445 25.0135C12.795 24.8089 13.079 24.3136 13.079 23.907C13.079 23.5722 12.8864 23.4025 12.6226 23.4673Z" fill="#CEBBA1"/>
<path d="M16.6819 21.0952C16.8309 21.1429 16.9273 21.2964 16.9273 21.5325C16.9273 21.9391 16.6433 22.4344 16.2928 22.6389C16.234 22.6732 16.1771 22.6964 16.123 22.7106C16.2304 22.7449 16.3654 22.7246 16.5122 22.6389C16.8627 22.4344 17.1467 21.9391 17.1467 21.5325C17.1467 21.1943 16.9499 21.0249 16.6819 21.0952Z" fill="#CEBBA1"/>
<path d="M16.0561 53.9094H8.18066C8.83231 58.8461 8.67526 57.6409 8.6987 57.8886C8.8203 59.176 9.99554 60.5269 12.0697 60.5269C14.1439 60.5269 15.1138 59.2435 15.4671 58.1755C15.521 58.0129 15.5735 57.5663 16.0561 53.9094Z" fill="#31343F"/>
<path d="M12.8575 62.2288C12.4986 62.4359 11.9155 62.4353 11.5548 62.2276C11.1941 62.0197 11.1924 61.6834 11.5513 61.476C11.9102 61.2689 12.4933 61.2695 12.854 61.4775C13.2147 61.6851 13.2165 62.0217 12.8575 62.2288Z" fill="#31343F"/>
<path d="M13.1232 61.8303H11.2834L11.0918 58.617H13.3148L13.1232 61.8303Z" fill="#31343F"/>
<path d="M17.608 72.4972C16.9103 72.4972 16.2062 72.312 15.5391 71.9406C12.9723 70.5119 11.5492 66.8234 11.6345 61.8203L12.7731 61.8396C12.6963 66.3429 13.9378 69.748 16.0934 70.948C17.1128 71.5151 18.2459 71.4893 19.2025 70.8763C20.7982 69.8542 21.6148 67.5198 21.3863 64.6314C21.2536 62.9518 20.8539 61.3705 20.4677 59.8415C19.4741 55.9091 18.5356 52.1952 23.2741 49.1682L23.888 50.1257C19.8404 52.7114 20.5668 55.5854 21.5718 59.5637C21.9697 61.1383 22.381 62.767 22.5217 64.5422C22.7836 67.8555 21.7728 70.5809 19.8175 71.8333C19.1269 72.2752 18.3713 72.4969 17.608 72.4972Z" fill="#31343F"/>
<path d="M12.3792 60.4757C12.0399 60.5105 11.7648 60.5211 11.3848 60.4424C11.3892 60.5155 11.4495 61.7851 11.4861 61.8482C11.618 62.0761 12.1085 62.1609 12.3042 62.0187C12.439 61.9412 12.3792 60.4757 12.3792 60.4757Z" fill="#3F434F"/>
<path d="M13.8548 55.615H8.87842C9.29009 58.7347 9.19106 57.9728 9.20571 58.1293C9.28247 58.9426 10.0252 59.7963 11.3359 59.7963C12.6465 59.7963 13.2594 58.9853 13.4827 58.3103C13.5167 58.2079 13.5498 57.9257 13.8548 55.615Z" fill="#3F434F"/>
<path d="M16.188 53.9451C13.9504 55.2345 10.3112 55.2281 8.05948 53.9305C5.80774 52.6328 5.7966 50.5356 8.03399 49.2461C10.2717 47.9567 13.9108 47.9631 16.1625 49.2608C18.4143 50.5584 18.4254 52.6556 16.188 53.9451Z" fill="#3F434F"/>
<path d="M16.1883 53.6742C13.9506 54.9637 10.3115 54.9573 8.05972 53.6596C6.98586 53.0408 6.42299 52.24 6.36908 51.4319C6.30227 52.3298 6.86602 53.2423 8.05972 53.9301C10.3115 55.2278 13.9506 55.2342 16.1883 53.9448C17.3588 53.2701 17.9126 52.3745 17.8534 51.4881C17.7942 52.2842 17.2396 53.0686 16.1883 53.6742Z" fill="#7C8189"/>
<path opacity="0.1" d="M7.93102 53.8524L16.0241 49.1885C13.7642 47.9666 10.2276 47.9821 8.03416 49.2461C5.84072 50.5101 5.80995 52.5501 7.93102 53.8524Z" fill="white"/>
<path d="M10.4077 52.0447C10.0183 52.269 9.38513 52.2678 8.99338 52.0421C8.60163 51.8163 8.59958 51.4513 8.98898 51.227C9.37839 51.0027 10.0116 51.0038 10.4033 51.2296C10.7951 51.4554 10.7971 51.8204 10.4077 52.0447Z" fill="#343742"/>
<path d="M10.5276 51.5117V46.3197C10.5276 46.3176 10.5276 46.3156 10.5276 46.3138V46.3074H10.5265C10.5136 45.9816 10.2115 45.4791 9.69552 45.4791C9.17953 45.4791 8.8751 45.981 8.86924 46.3074H8.86865V46.3109C8.86865 46.3129 8.86865 46.3147 8.86865 46.3167V51.5538H8.86982C8.86396 51.6816 8.94396 51.8109 9.1139 51.9089C9.44119 52.0975 9.96977 52.0984 10.295 51.9109C10.4837 51.8018 10.5124 51.6851 10.5276 51.5117Z" fill="#B0B7C9"/>
<path d="M10.527 51.5116V46.3195C10.527 46.3175 10.527 46.3154 10.527 46.3137V46.3073H10.5259C10.513 45.9815 10.2109 45.479 9.69491 45.479C9.64041 45.479 9.58855 45.4857 9.53874 45.4963C9.95891 45.5846 10.2024 46.0163 10.2138 46.3075H10.215V46.314C10.215 46.316 10.215 46.3181 10.215 46.3198V51.3384C10.2086 51.5224 10.171 51.7575 9.98235 51.8663C9.71367 52.0213 9.35063 52.0044 8.98877 51.8143C9.02334 51.8476 9.06319 51.8798 9.1133 51.9087C9.44058 52.0974 9.96917 52.0982 10.2944 51.9108C10.4831 51.8017 10.5347 51.6698 10.527 51.5116Z" fill="#868B9B"/>
<path d="M9.03038 46.0874C8.99728 45.9672 9.2935 45.5823 9.49656 45.5823C9.65039 45.5919 9.77608 45.8809 9.75587 46.0868C9.7295 46.3614 9.11038 46.3784 9.03038 46.0874Z" fill="#DAE2F2"/>
<path d="M9.07109 46.3596C9.07109 46.3596 9.0708 51.5814 9.0708 51.7101C9.3014 51.9198 9.77577 51.8587 9.77577 51.8587V46.4795C9.52964 46.5058 9.26711 46.4651 9.07109 46.3596Z" fill="#DAE2F2"/>
<path d="M9.8457 46.1196C9.8457 45.6748 10.1261 46.0214 10.1261 46.1841C10.1261 46.3719 9.8457 46.2989 9.8457 46.1196Z" fill="#DAE2F2"/>
<path d="M15.2334 52.0447C14.844 52.269 14.2108 52.2678 13.8191 52.0421C13.4273 51.8163 13.4253 51.4513 13.8147 51.227C14.2041 51.0027 14.8373 51.0038 15.229 51.2296C15.6207 51.4554 15.6225 51.8204 15.2334 52.0447Z" fill="#343742"/>
<path d="M15.3533 51.5117V46.3197C15.3533 46.3176 15.3533 46.3156 15.3533 46.3138V46.3074H15.3522C15.3393 45.9816 15.0372 45.4791 14.5212 45.4791C14.0052 45.4791 13.7008 45.981 13.6949 46.3074H13.6943V46.3109C13.6943 46.3129 13.6943 46.3147 13.6943 46.3167V51.5538H13.6955C13.6896 51.6816 13.7696 51.8109 13.9396 51.9089C14.2669 52.0975 14.7954 52.0984 15.1207 51.9109C15.3094 51.8018 15.3381 51.6851 15.3533 51.5117Z" fill="#B0B7C9"/>
<path d="M15.3534 51.5116V46.3195C15.3534 46.3175 15.3534 46.3154 15.3534 46.3137V46.3073H15.3522C15.3394 45.9815 15.0373 45.479 14.5213 45.479C14.4668 45.479 14.4149 45.4857 14.3654 45.4963C14.7856 45.5846 15.0291 46.0163 15.0405 46.3075H15.0417V46.314C15.0417 46.316 15.0417 46.3181 15.0417 46.3198V51.3384C15.0352 51.5224 14.9977 51.7575 14.809 51.8663C14.5403 52.0213 14.1773 52.0044 13.8154 51.8143C13.85 51.8476 13.8899 51.8798 13.94 51.9087C14.2672 52.0974 14.7958 52.0982 15.1211 51.9108C15.3095 51.8017 15.361 51.6698 15.3534 51.5116Z" fill="#868B9B"/>
<path d="M13.8556 46.0874C13.8225 45.9672 14.1187 45.5823 14.3218 45.5823C14.4756 45.5919 14.601 45.8809 14.5811 46.0868C14.5547 46.3614 13.9356 46.3784 13.8556 46.0874Z" fill="#DAE2F2"/>
<path d="M13.8968 46.3596C13.8968 46.3596 13.8965 51.5814 13.8965 51.7101C14.1271 51.9198 14.6015 51.8587 14.6015 51.8587V46.4795C14.3556 46.5058 14.0931 46.4651 13.8968 46.3596Z" fill="#DAE2F2"/>
<path d="M14.6709 46.1196C14.6709 45.6748 14.9513 46.0214 14.9513 46.1841C14.9513 46.3719 14.6709 46.2989 14.6709 46.1196Z" fill="#DAE2F2"/>
<path d="M17.8505 51.7856C17.781 52.5723 17.2276 53.3459 16.188 53.9452C13.9503 55.2346 10.3112 55.2282 8.05942 53.9305C6.9668 53.3009 6.40335 52.4829 6.36672 51.6605V53.2196C6.36409 53.2772 6.36409 53.3348 6.36672 53.3924V53.519H6.3761C6.46224 54.2984 7.02276 55.065 8.05912 55.6625C10.3109 56.9601 13.95 56.9666 16.1877 55.6771C17.2267 55.0784 17.7802 54.3052 17.8502 53.519H17.8505V53.5176C17.8607 53.4029 17.861 53.288 17.8505 53.1734V51.7856Z" fill="#343742"/>
<path d="M14.1448 54.6982C12.1023 55.1355 9.7093 54.881 8.05968 53.9302C8.02628 53.9109 7.99493 53.8911 7.9624 53.8715V55.6037C7.99493 55.6233 8.02628 55.6432 8.05968 55.6625C9.7093 56.6133 12.1026 56.8677 14.1448 56.4305V54.6982Z" fill="#454A56"/>
<path d="M17.8507 53.3554V53.3569H17.8504C17.7803 54.143 17.2272 54.916 16.1879 55.5149C13.9502 56.8044 10.3111 56.798 8.05931 55.5003C7.02294 54.9031 6.46242 54.1363 6.37628 53.3569H6.36691C6.3672 53.3689 6.36632 53.3806 6.36691 53.3926V53.5192H6.37628C6.46242 54.2986 7.02294 55.0651 8.05931 55.6626C10.3111 56.9603 13.9502 56.9667 16.1879 55.6773C17.2269 55.0786 17.7803 54.3053 17.8504 53.5192H17.8507V53.5177C17.858 53.4335 17.8583 53.349 17.8548 53.2645C17.8533 53.2946 17.8533 53.325 17.8507 53.3554Z" fill="#2C2F38"/>
<path d="M11.813 63.2065C11.813 63.2065 12.1385 63.2878 12.3553 63.2878C12.3553 63.2878 12.2469 64.8575 12.762 66.671C13.5347 69.3909 15.1348 71.1638 15.0941 71.2451C14.9449 71.3533 12.0436 68.701 11.813 63.2065Z" fill="#454A56"/>
<path d="M20.0421 57.1981C20.0421 57.1981 19.5405 55.2495 19.9337 53.5307C20.3269 51.8122 21.52 50.716 21.5742 50.7295C21.6284 50.7429 20.4895 52.1368 20.232 53.6254C19.8578 55.7873 20.2162 57.1753 20.0421 57.1981Z" fill="#4E5460"/>
<path d="M59.4143 72.7272L34.8871 72.6138C31.9369 72.6005 29.5569 70.1839 29.5679 67.2159L29.8287 5.35349C29.8419 2.38331 32.2441 -0.0132837 35.1964 5.54136e-05L59.7237 0.113438C62.6739 0.126777 65.0539 2.54338 65.0428 5.51134L64.7821 67.3738C64.771 70.344 62.3667 72.7406 59.4143 72.7272Z" fill="url(#paint0_linear_1_3088)"/>
<path d="M59.6881 2.24974L54.9325 2.2275C54.2938 2.22528 53.7745 2.76552 53.7723 3.43692L53.7679 4.30396C53.7657 4.97537 53.2463 5.5156 52.6077 5.51338L43.3373 5.47114C42.6987 5.46891 42.186 4.92201 42.1882 4.25061L42.1926 3.38356C42.1948 2.71216 41.6799 2.16748 41.0435 2.16303L39.3706 2.15414L35.2094 2.13413C33.1432 2.12524 31.4593 3.80375 31.4505 5.88243L31.1963 66.2642C31.1875 68.3429 32.8537 70.0348 34.9199 70.0436L59.3986 70.157C61.4648 70.1659 63.1487 68.4874 63.1576 66.4087L63.4117 6.02693C63.4228 3.95047 61.7543 2.25863 59.6881 2.24974Z" fill="white"/>
<rect x="33.5269" y="15.7429" width="28.0394" height="3.4984" rx="1.7492" fill="url(#paint1_linear_1_3088)"/>
<rect x="36.1553" y="16.6176" width="23.6583" height="1.7492" rx="0.874601" fill="url(#paint2_linear_1_3088)"/>
<path d="M55.3847 17.4922H54.0324H38.8915C37.0467 17.4922 35.5507 18.4301 35.5288 19.5918C35.5288 19.6004 35.5269 19.6085 35.5269 19.6171C35.5269 19.6256 35.5288 19.6338 35.5288 19.6423V54.0336H48.5291C49.2642 54.488 50.2694 54.7691 51.3793 54.7691C52.4893 54.7691 53.4942 54.488 54.2296 54.0336C55.3099 53.3656 55.3847 52.6186 55.3847 51.7239L55.4559 19.6171C55.4559 18.4435 56.9622 17.4922 58.8205 17.4922H55.3847Z" fill="#FFAF2A"/>
<path d="M53.5926 25.9557H37.2773V26.3279H53.5926V25.9557Z" fill="#D2CFCA"/>
<path d="M53.5926 28.1343H37.2773V28.5065H53.5926V28.1343Z" fill="#D2CFCA"/>
<path d="M53.5926 30.3124H37.2773V30.6845H53.5926V30.3124Z" fill="#D2CFCA"/>
<path d="M53.5926 32.4893H37.2773V32.8615H53.5926V32.4893Z" fill="#D2CFCA"/>
<path d="M53.5926 34.6674H37.2773V35.0395H53.5926V34.6674Z" fill="#D2CFCA"/>
<path d="M53.5926 36.8454H37.2773V37.2175H53.5926V36.8454Z" fill="#D2CFCA"/>
<path d="M53.5926 39.3118H37.2773V39.684H53.5926V39.3118Z" fill="#D2CFCA"/>
<path d="M53.5926 41.7772H37.2773V42.1493H53.5926V41.7772Z" fill="#D2CFCA"/>
<path d="M53.5926 44.243H37.2773V44.6152H53.5926V44.243Z" fill="#D2CFCA"/>
<path d="M53.5926 23.564H37.2773V23.9362H53.5926V23.564Z" fill="#D2CFCA"/>
<g filter="url(#filter0_d_1_3088)">
<path d="M48.1781 51.6476C48.1781 51.3476 48.2331 51.0584 48.3287 50.783H48.1781L33.5278 52.6139L34.2865 53.4541C35.0794 54.3321 36.346 54.8516 37.694 54.8516H52.1562C49.9592 54.8516 48.1781 53.4172 48.1781 51.6476Z" fill="url(#paint3_linear_1_3088)"/>
</g>
<rect x="33.5269" y="60.3474" width="27.1632" height="6.99681" rx="3.4984" fill="#FFAF2A"/>
<path d="M45.477 63.7951C45.477 63.9445 45.441 64.0845 45.369 64.2151C45.2997 64.3458 45.189 64.4511 45.037 64.5311C44.8877 64.6111 44.6984 64.6511 44.469 64.6511H44.001V65.7231H43.441V62.9311H44.469C44.685 62.9311 44.869 62.9685 45.021 63.0431C45.173 63.1178 45.2864 63.2205 45.361 63.3511C45.4384 63.4818 45.477 63.6298 45.477 63.7951ZM44.445 64.1991C44.5997 64.1991 44.7144 64.1645 44.789 64.0951C44.8637 64.0231 44.901 63.9231 44.901 63.7951C44.901 63.5231 44.749 63.3871 44.445 63.3871H44.001V64.1991H44.445ZM45.7306 64.6071C45.7306 64.3831 45.7746 64.1845 45.8626 64.0111C45.9533 63.8378 46.0746 63.7045 46.2266 63.6111C46.3813 63.5178 46.5533 63.4711 46.7426 63.4711C46.908 63.4711 47.052 63.5045 47.1746 63.5711C47.3 63.6378 47.4 63.7218 47.4746 63.8231V63.5071H48.0386V65.7231H47.4746V65.3991C47.4026 65.5031 47.3026 65.5898 47.1746 65.6591C47.0493 65.7258 46.904 65.7591 46.7386 65.7591C46.552 65.7591 46.3813 65.7111 46.2266 65.6151C46.0746 65.5191 45.9533 65.3845 45.8626 65.2111C45.7746 65.0351 45.7306 64.8338 45.7306 64.6071ZM47.4746 64.6151C47.4746 64.4791 47.448 64.3631 47.3946 64.2671C47.3413 64.1685 47.2693 64.0938 47.1786 64.0431C47.088 63.9898 46.9906 63.9631 46.8866 63.9631C46.7826 63.9631 46.6866 63.9885 46.5986 64.0391C46.5106 64.0898 46.4386 64.1645 46.3826 64.2631C46.3293 64.3591 46.3026 64.4738 46.3026 64.6071C46.3026 64.7405 46.3293 64.8578 46.3826 64.9591C46.4386 65.0578 46.5106 65.1338 46.5986 65.1871C46.6893 65.2405 46.7853 65.2671 46.8866 65.2671C46.9906 65.2671 47.088 65.2418 47.1786 65.1911C47.2693 65.1378 47.3413 65.0631 47.3946 64.9671C47.448 64.8685 47.4746 64.7511 47.4746 64.6151ZM50.7056 63.5071L49.3336 66.7711H48.7376L49.2176 65.6671L48.3296 63.5071H48.9576L49.5296 65.0551L50.1096 63.5071H50.7056Z" fill="white"/>
<g clip-path="url(#clip0_1_3088)">
<path d="M79.0911 49.0474C79.0911 44.1788 75.167 40.2319 70.3293 40.2319C65.4898 40.2319 61.5664 44.1788 61.5664 49.0474C61.5664 50.4827 61.9103 51.8355 62.5151 53.0338H62.512C62.512 53.0338 62.5171 53.0413 62.5241 53.0518C62.6771 53.3517 62.8441 53.6429 63.0291 53.9217C63.6244 55.0321 64.5242 57.011 64.5242 58.854C64.5242 61.6084 67.8642 64.9695 67.8642 64.9695H70.3293H72.7937C72.7937 64.9695 76.1328 61.6084 76.1328 58.854C76.1328 57.011 77.0331 55.0321 77.6279 53.9217C77.8136 53.6429 77.9806 53.3517 78.1326 53.0518C78.1405 53.0413 78.1452 53.0338 78.1452 53.0338H78.1429C78.7472 51.8355 79.0911 50.4825 79.0911 49.0474Z" fill="#F2A320"/>
<path d="M62.0796 49.0482C62.0796 50.3656 62.3798 51.628 62.9722 52.8009C62.9808 52.817 63.457 53.6364 63.457 53.6364L63.4816 53.6767C64.1913 55.0002 65.0381 56.9718 65.0381 58.8551C65.0381 61.0499 67.4601 63.7864 68.0833 64.4524C68.4465 64.4524 72.2101 64.4524 72.5742 64.4524C73.1964 63.7864 75.6194 61.0499 75.6194 58.8551C75.6194 56.972 76.4658 55.0002 77.1761 53.6767L77.2003 53.6364L77.676 52.8173C78.2768 51.6283 78.5763 50.3656 78.5763 49.0484C78.5763 44.4726 74.8768 40.7501 70.3291 40.7501C65.7805 40.7497 62.0796 44.4724 62.0796 49.0482Z" fill="url(#paint4_radial_1_3088)"/>
<path d="M73.8242 55.1579L73.5994 55.8386L73.5873 55.8734C73.2485 56.974 72.8467 58.6114 72.8467 60.1761C72.8467 62.002 71.6932 64.277 71.3968 64.83C71.2233 64.83 69.4332 64.83 69.2612 64.83C68.964 64.2773 67.811 62.002 67.811 60.1761C67.811 58.6114 67.409 56.974 67.0709 55.8734L67.0584 55.8386C67.0584 55.8386 66.833 55.1579 66.8284 55.1446C66.6126 54.3975 66.4799 53.6061 66.4287 52.7844C66.4129 53.0323 66.4043 53.2852 66.4043 53.5402C66.4043 54.6363 66.5473 55.6851 66.8284 56.6606C66.833 56.6746 67.0584 57.3565 67.0584 57.3565L67.0709 57.3894C67.4087 58.49 67.811 60.129 67.811 61.6937C67.811 63.5196 68.964 65.7933 69.2612 66.3476C69.433 66.3476 71.2231 66.3476 71.3968 66.3476C71.6932 65.7933 72.8467 63.5196 72.8467 61.6937C72.8467 60.1293 73.2483 58.49 73.5873 57.3894L73.5994 57.3565L73.8242 56.6746C74.11 55.6854 74.2527 54.6365 74.2527 53.5404C74.2527 53.2852 74.2446 53.0326 74.2286 52.7834C74.1781 53.6059 74.0437 54.3996 73.8242 55.1579Z" fill="url(#paint5_linear_1_3088)"/>
<path d="M65.8181 43.5185C65.577 43.2757 65.0643 43.3969 64.6747 43.7892C64.2843 44.181 64.1634 44.6968 64.4059 44.94C64.6474 45.1826 65.1587 45.0612 65.5494 44.6689C65.9391 44.276 66.0597 43.7609 65.8181 43.5185Z" fill="url(#paint6_radial_1_3088)"/>
<path d="M63.6986 45.6521C63.5519 45.5043 63.2419 45.5776 63.0043 45.8155C62.7683 46.0546 62.6951 46.3668 62.8418 46.515C62.989 46.6618 63.2989 46.5881 63.5354 46.3504C63.7707 46.112 63.8448 45.7996 63.6986 45.6521Z" fill="url(#paint7_radial_1_3088)"/>
<path d="M66.2218 62.2919L74.6894 63.3484C74.9312 63.38 75.1082 63.6184 75.1082 63.8981C75.1082 63.926 75.107 63.9531 75.1033 63.9795L75.0668 64.2822C75.0463 64.4502 74.9668 64.5996 74.8466 64.6948C74.7485 64.7727 74.631 64.8071 74.5139 64.7929L66.0474 63.736C65.781 63.7031 65.5945 63.4193 65.6317 63.1042L65.6677 62.8025C65.6884 62.6357 65.7689 62.4858 65.8881 62.3906C65.9865 62.3122 66.1048 62.2773 66.2218 62.2919Z" fill="#808184"/>
<path d="M66.189 64.0003L74.6566 65.0583C74.8998 65.089 75.0753 65.3266 75.0753 65.6076C75.0753 65.6352 75.0742 65.6611 75.0704 65.6887L75.0339 65.9916C75.0135 66.1577 74.9337 66.3088 74.8137 66.404C74.7156 66.4819 74.5982 66.5154 74.4817 66.502L66.0146 65.4445C65.7479 65.4106 65.5616 65.1276 65.5984 64.8134L65.6363 64.5105C65.6739 64.1971 65.9223 63.9674 66.189 64.0003Z" fill="#808184"/>
<path d="M66.1376 65.7653L74.6057 66.8221C74.8489 66.852 75.0258 67.0909 75.0258 67.3713C75.0258 67.3978 75.0244 67.4249 75.0209 67.4532L74.9837 67.7557C74.964 67.9224 74.8844 68.0719 74.7642 68.1671C74.6661 68.2452 74.5473 68.281 74.4313 68.2661L65.9651 67.2092C65.6972 67.1755 65.5121 66.893 65.5498 66.5781L65.5861 66.2747C65.6065 66.108 65.6863 65.9578 65.8065 65.8628C65.9046 65.7847 66.0218 65.7501 66.1376 65.7653Z" fill="#808184"/>
<path d="M71.7162 69.707C71.7162 70.1257 71.0933 70.4653 70.3288 70.4653C69.5633 70.4653 68.9404 70.1257 68.9404 69.707C68.9404 69.2892 69.5633 68.9493 70.3288 68.9493C71.0933 68.9496 71.7162 69.2892 71.7162 69.707Z" fill="#808184"/>
<path d="M69.0151 69.7071C69.0151 70.0914 69.6041 70.4018 70.3293 70.4018C71.0538 70.4018 71.6414 70.0914 71.6414 69.7071C71.6414 69.3237 71.0538 69.0123 70.3293 69.0123C69.6041 69.0126 69.0151 69.3239 69.0151 69.7071Z" fill="#6D6E70"/>
<path d="M74.0527 67.5006C74.0527 68.8564 72.3822 69.9595 70.3291 69.9595C68.2746 69.9595 66.604 68.8564 66.604 67.5006C66.604 66.1444 68.2744 65.0408 70.3291 65.0408C72.3822 65.041 74.0527 66.1444 74.0527 67.5006Z" fill="#808184"/>
<path d="M74.088 62.0583C74.3571 62.0583 74.5761 62.281 74.5761 62.5542V68.0395C74.5761 68.3125 74.3573 68.5352 74.088 68.5352H66.5693C66.3005 68.5352 66.0806 68.3127 66.0806 68.0395V62.5542C66.0806 62.2808 66.3003 62.0583 66.5693 62.0583H74.088Z" fill="#808184"/>
<path d="M66.2819 62.0583H74.5761V64.038H66.0806V62.0583H66.2819Z" fill="#808184"/>
<path d="M66.8052 67.5004C66.8052 68.7453 68.3823 69.7563 70.3289 69.7563C72.2745 69.7563 73.8517 68.7455 73.8517 67.5004C73.8517 66.2548 72.2745 65.2452 70.3289 65.2452C68.3823 65.2455 66.8052 66.2548 66.8052 67.5004Z" fill="url(#paint8_radial_1_3088)"/>
<path d="M66.2822 68.0396C66.2822 68.1996 66.4117 68.3315 66.5694 68.3315H74.0883C74.2458 68.3315 74.375 68.1998 74.375 68.0396V62.5543C74.375 62.3941 74.2455 62.2624 74.0883 62.2624H66.5696C66.4117 62.2624 66.2825 62.3938 66.2825 62.5543V68.0396H66.2822Z" fill="url(#paint9_linear_1_3088)"/>
<path d="M74.3753 62.2624H66.2822V63.8345H74.3753V62.2624Z" fill="url(#paint10_linear_1_3088)"/>
<path d="M65.8679 62.9568C65.8923 62.755 66.0393 62.605 66.1976 62.6242L74.6636 63.681C74.8201 63.7002 74.9291 63.882 74.9047 64.0845L74.8671 64.3879C74.8429 64.5905 74.695 64.74 74.5385 64.7198L66.0716 63.6633C65.9149 63.6431 65.8063 63.4621 65.8312 63.2595L65.8679 62.9568Z" fill="#898B8D"/>
<path d="M65.8355 64.6653C65.8602 64.4639 66.0085 64.3135 66.1652 64.3329L74.6328 65.3909C74.7884 65.4101 74.8967 65.5911 74.8707 65.7942L74.8361 66.0962C74.8107 66.2985 74.6626 66.4489 74.5061 66.4288L66.0392 65.372C65.8825 65.3516 65.7746 65.1706 65.7988 64.9692L65.8355 64.6653Z" fill="#898B8D"/>
<path d="M65.7857 66.4289C65.8099 66.227 65.9578 66.0771 66.1133 66.0963L74.5809 67.1545C74.7376 67.1737 74.8448 67.3554 74.8206 67.558L74.7846 67.8614C74.7602 68.0639 74.6125 68.2118 74.4554 68.1926L65.9889 67.1358C65.831 67.1166 65.7239 66.9348 65.748 66.7325L65.7857 66.4289Z" fill="#898B8D"/>
<path d="M65.7328 62.8265C65.7565 62.6241 65.9049 62.4747 66.0614 62.4938L74.529 63.5507C74.6857 63.5708 74.7929 63.753 74.7687 63.9551L74.7322 64.2576C74.708 64.4599 74.559 64.6094 74.4029 64.5902L65.9353 63.5334C65.7788 63.5128 65.6714 63.332 65.6958 63.1294L65.7328 62.8265Z" fill="url(#paint11_linear_1_3088)"/>
<path d="M65.6999 64.5351C65.7245 64.3328 65.8719 64.1828 66.0284 64.2025L74.496 65.2605C74.6527 65.2794 74.7613 65.4612 74.7357 65.6637L74.6997 65.9664C74.6753 66.169 74.5272 66.3178 74.3711 66.2981L65.904 65.2415C65.7475 65.2214 65.6385 65.0404 65.6638 64.8378L65.6999 64.5351Z" fill="url(#paint12_linear_1_3088)"/>
<path d="M65.6494 66.2995C65.6736 66.096 65.8226 65.9474 65.9787 65.9673L74.4449 67.0241C74.6011 67.0433 74.7102 67.2251 74.6853 67.4269L74.6497 67.731C74.6241 67.9329 74.4767 68.0823 74.3205 68.0636L65.8526 67.0061C65.6964 66.986 65.5887 66.8042 65.6134 66.6017L65.6494 66.2995Z" fill="url(#paint13_linear_1_3088)"/>
<path d="M71.4486 51.087C71.4486 51.087 71.2389 51.2982 71.0301 51.5076C71.0301 51.4234 71.0301 51.2837 71.0301 51.2837L70.5034 51.1728C70.4904 51.2028 70.1788 51.8991 69.4885 51.8991C69.4404 51.8991 69.4125 51.894 69.3869 51.8905C69.4264 51.7887 69.5504 51.6135 69.6834 51.4781L69.2939 51.0868C69.2939 51.0868 68.8923 51.4924 68.6647 51.7207C68.5426 51.5967 68.2211 51.2748 68.2211 51.2748C68.2211 51.2748 67.7268 51.7721 67.5249 51.9752C67.4026 51.8524 66.8065 51.2528 66.8065 51.2528C66.8065 51.2528 66.8065 52.2215 66.8065 52.447C66.6137 52.476 66.3266 52.5204 66.3266 52.5204L65.663 52.9646C65.5825 53.017 65.5391 53.105 65.5391 53.1953C65.5391 53.2474 65.5549 53.3003 65.5856 53.3475C65.6702 53.4741 65.8409 53.5096 65.9669 53.4243C65.9669 53.4243 66.444 53.105 66.5293 53.0477C66.6281 53.0332 67.3564 52.9225 67.3564 52.9225C67.3564 52.9225 67.3564 52.6093 67.3564 52.5871C67.3954 52.6264 67.5252 52.7564 67.5252 52.7564C67.5252 52.7564 68.02 52.2594 68.2213 52.0561C68.345 52.1794 68.665 52.5019 68.665 52.5019C68.665 52.5019 68.9144 52.2524 68.9226 52.243C69.0128 52.3532 69.18 52.4512 69.4887 52.4512C69.9177 52.4512 70.2416 52.2823 70.4809 52.0807C70.4809 52.0987 70.4809 52.8418 70.4809 52.8418C70.4809 52.8418 71.1607 52.1593 71.3674 51.9499C71.3674 52.1838 71.3674 53.0968 71.3674 53.0968C71.3674 53.0968 72.0389 52.4226 72.2217 52.239C72.3205 52.4049 72.6021 52.8767 72.6021 52.8767C72.6021 52.8767 72.8832 52.5925 72.8881 52.5876C72.8881 52.6325 72.8881 52.7815 72.8881 52.7815C72.8881 52.7815 73.6893 52.9522 73.9611 53.0095C73.9681 53.2306 73.9874 53.8172 73.9874 53.8172H74.8102C74.9616 53.8172 75.0855 53.6942 75.0855 53.5403C75.0855 53.388 74.9618 53.2643 74.8102 53.2643C74.8102 53.2643 74.6651 53.2643 74.5191 53.2643C74.5122 53.0411 74.4963 52.5583 74.4963 52.5583C74.4963 52.5583 73.7132 52.3927 73.4373 52.3335C73.4373 52.1455 73.4373 51.2533 73.4373 51.2533C73.4373 51.2533 72.8392 51.8549 72.7107 51.9843C72.6109 51.8182 72.33 51.3469 72.33 51.3469C72.33 51.3469 71.9801 51.6987 71.9171 51.7625C71.9171 51.53 71.9171 50.6157 71.9171 50.6157L71.4486 51.087Z" fill="#FFFACF"/>
<path d="M75.835 45.9046C75.1188 47.1509 73.4994 47.1058 71.9755 46.2213C70.453 45.3362 69.6039 43.947 70.3191 42.7005C71.0352 41.4521 72.6935 41.4312 74.2179 42.315C75.7403 43.2001 76.5509 44.6569 75.835 45.9046Z" fill="url(#paint14_radial_1_3088)"/>
</g>
<defs>
<filter id="filter0_d_1_3088" x="3.52783" y="25.783" width="78.6284" height="64.0686" filterUnits="userSpaceOnUse" color-interpolation-filters="sRGB">
<feFlood flood-opacity="0" result="BackgroundImageFix"/>
<feColorMatrix in="SourceAlpha" type="matrix" values="0 0 0 0 0 0 0 0 0 0 0 0 0 0 0 0 0 0 127 0" result="hardAlpha"/>
<feOffset dy="5"/>
<feGaussianBlur stdDeviation="15"/>
<feColorMatrix type="matrix" values="0 0 0 0 0 0 0 0 0 0 0 0 0 0 0 0 0 0 0.05 0"/>
<feBlend mode="normal" in2="BackgroundImageFix" result="effect1_dropShadow_1_3088"/>
<feBlend mode="normal" in="SourceGraphic" in2="effect1_dropShadow_1_3088" result="shape"/>
</filter>
<linearGradient id="paint0_linear_1_3088" x1="47.3054" y1="0" x2="47.3054" y2="72.7273" gradientUnits="userSpaceOnUse">
<stop stop-color="#469FEF"/>
<stop offset="0.258455" stop-color="#5C75F0"/>
<stop offset="0.652018" stop-color="#6C56F0"/>
</linearGradient>
<linearGradient id="paint1_linear_1_3088" x1="47.5466" y1="15.7429" x2="47.5466" y2="19.2413" gradientUnits="userSpaceOnUse">
<stop stop-color="#469FEF"/>
<stop offset="0.258455" stop-color="#5C75F0"/>
<stop offset="0.652018" stop-color="#6C56F0"/>
</linearGradient>
<linearGradient id="paint2_linear_1_3088" x1="47.9844" y1="16.6176" x2="47.9844" y2="18.3668" gradientUnits="userSpaceOnUse">
<stop stop-color="#469FEF"/>
<stop offset="0.258455" stop-color="#5C75F0"/>
<stop offset="0.652018" stop-color="#6C56F0"/>
</linearGradient>
<linearGradient id="paint3_linear_1_3088" x1="42.842" y1="50.783" x2="42.842" y2="54.8516" gradientUnits="userSpaceOnUse">
<stop stop-color="#469FEF"/>
<stop offset="0.258455" stop-color="#5C75F0"/>
<stop offset="0.652018" stop-color="#6C56F0"/>
</linearGradient>
<radialGradient id="paint4_radial_1_3088" cx="0" cy="0" r="1" gradientUnits="userSpaceOnUse" gradientTransform="translate(70.6864 52.1769) scale(11.9362 12.0082)">
<stop stop-color="#F4E589"/>
<stop offset="0.1637" stop-color="#F5E181"/>
<stop offset="0.4153" stop-color="#F6D76C"/>
<stop offset="0.7216" stop-color="#F9C749"/>
<stop offset="1" stop-color="#FCB623"/>
</radialGradient>
<linearGradient id="paint5_linear_1_3088" x1="70.3285" y1="52.9343" x2="70.3285" y2="62.4956" gradientUnits="userSpaceOnUse">
<stop stop-color="#FFF696"/>
<stop offset="0.0338" stop-color="#FDF290"/>
<stop offset="0.346" stop-color="#EDCF61"/>
<stop offset="0.6223" stop-color="#E1B53F"/>
<stop offset="0.8497" stop-color="#DAA62B"/>
<stop offset="1" stop-color="#D7A023"/>
</linearGradient>
<radialGradient id="paint6_radial_1_3088" cx="0" cy="0" r="1" gradientUnits="userSpaceOnUse" gradientTransform="translate(65.3756 44.4763) scale(0.808993 0.813871)">
<stop stop-color="#F4E589"/>
<stop offset="0.2013" stop-color="#F5E791"/>
<stop offset="0.5107" stop-color="#F8EBA6"/>
<stop offset="0.8878" stop-color="#FDF3C9"/>
<stop offset="1" stop-color="#FFF5D5"/>
</radialGradient>
<radialGradient id="paint7_radial_1_3088" cx="0" cy="0" r="1" gradientUnits="userSpaceOnUse" gradientTransform="translate(63.5333 46.3309) scale(0.490246 0.493755)">
<stop stop-color="#F4E589"/>
<stop offset="0.2013" stop-color="#F5E791"/>
<stop offset="0.5107" stop-color="#F8EBA6"/>
<stop offset="0.8878" stop-color="#FDF3C9"/>
<stop offset="1" stop-color="#FFF5D5"/>
</radialGradient>
<radialGradient id="paint8_radial_1_3088" cx="0" cy="0" r="1" gradientUnits="userSpaceOnUse" gradientTransform="translate(70.2913 67.7247) rotate(180) scale(3.52414 2.25616)">
<stop stop-color="white"/>
<stop offset="0.9718" stop-color="#838587"/>
</radialGradient>
<linearGradient id="paint9_linear_1_3088" x1="65.9523" y1="65.2969" x2="74.0452" y2="65.2969" gradientUnits="userSpaceOnUse">
<stop offset="0.0057" stop-color="#48484A"/>
<stop offset="0.2768" stop-color="white"/>
<stop offset="0.3245" stop-color="#EFEFF0"/>
<stop offset="0.4864" stop-color="#BFBFC1"/>
<stop offset="0.64" stop-color="#99999B"/>
<stop offset="0.7812" stop-color="#7D7E81"/>
<stop offset="0.9056" stop-color="#6D6E71"/>
<stop offset="1" stop-color="#67686B"/>
</linearGradient>
<linearGradient id="paint10_linear_1_3088" x1="65.9523" y1="63.0485" x2="74.0452" y2="63.0485" gradientUnits="userSpaceOnUse">
<stop offset="0.0057" stop-color="#48484A"/>
<stop offset="0.2768" stop-color="white"/>
<stop offset="0.3245" stop-color="#EFEFF0"/>
<stop offset="0.4864" stop-color="#BFBFC1"/>
<stop offset="0.64" stop-color="#99999B"/>
<stop offset="0.7812" stop-color="#7D7E81"/>
<stop offset="0.9056" stop-color="#6D6E71"/>
<stop offset="1" stop-color="#67686B"/>
</linearGradient>
<linearGradient id="paint11_linear_1_3088" x1="75.0556" y1="63.542" x2="65.5299" y2="63.542" gradientUnits="userSpaceOnUse">
<stop offset="0.096" stop-color="white"/>
<stop offset="0.1808" stop-color="#A6A8AB"/>
<stop offset="0.3107" stop-color="white"/>
<stop offset="0.3729" stop-color="#9C9EA1"/>
<stop offset="0.6949" stop-color="#DBDCDD"/>
<stop offset="0.9831" stop-color="#9C9EA1"/>
</linearGradient>
<linearGradient id="paint12_linear_1_3088" x1="75.0236" y1="65.2504" x2="65.498" y2="65.2504" gradientUnits="userSpaceOnUse">
<stop offset="0.096" stop-color="white"/>
<stop offset="0.1808" stop-color="#A6A8AB"/>
<stop offset="0.3107" stop-color="white"/>
<stop offset="0.3729" stop-color="#9C9EA1"/>
<stop offset="0.6949" stop-color="#DBDCDD"/>
<stop offset="0.9831" stop-color="#9C9EA1"/>
</linearGradient>
<linearGradient id="paint13_linear_1_3088" x1="74.9733" y1="67.0155" x2="65.4476" y2="67.0155" gradientUnits="userSpaceOnUse">
<stop offset="0.096" stop-color="white"/>
<stop offset="0.1808" stop-color="#A6A8AB"/>
<stop offset="0.3107" stop-color="white"/>
<stop offset="0.3729" stop-color="#9C9EA1"/>
<stop offset="0.6949" stop-color="#DBDCDD"/>
<stop offset="0.9831" stop-color="#9C9EA1"/>
</linearGradient>
<radialGradient id="paint14_radial_1_3088" cx="0" cy="0" r="1" gradientUnits="userSpaceOnUse" gradientTransform="translate(71.1058 45.6272) scale(4.86172 4.89104)">
<stop stop-color="#F4E589"/>
<stop offset="0.2013" stop-color="#F5E791"/>
<stop offset="0.5107" stop-color="#F8EBA6"/>
<stop offset="0.8878" stop-color="#FDF3C9"/>
<stop offset="1" stop-color="#FFF5D5"/>
</radialGradient>
<clipPath id="clip0_1_3088">
<rect width="17.5246" height="32.0343" fill="white" transform="translate(61.5664 40.2319)"/>
</clipPath>
</defs>
</svg>
